<svg id="Layer_1" data-name="Layer 1" xmlns="http://www.w3.org/2000/svg" viewBox="0 0 221.7 67.1"><defs><style>.cls-1{fill:#010101;}</style></defs><title>morhipo-logo3</title><path class="cls-1" d="M251.2,386.7a14.36,14.36,0,0,1,10.2-4.1,14.2,14.2,0,0,1,10.2,4.1,14.71,14.71,0,0,1,4.8,10.6,14.33,14.33,0,0,1-4.8,10.5,14,14,0,0,1-10.2,4.1,14.77,14.77,0,0,1-15-14.6,14.38,14.38,0,0,1,4.8-10.6m15.9,6.8c0-6.8-.8-10-5.7-10s-5.7,3.2-5.7,10v7.3c0,6.8.8,10,5.7,10s5.7-3.2,5.7-10v-7.3Z" transform="translate(-196 -362)"/><path class="cls-1" d="M392.5,386.7a14.36,14.36,0,0,1,10.2-4.1,14.2,14.2,0,0,1,10.2,4.1,14.71,14.71,0,0,1,4.8,10.6,14.33,14.33,0,0,1-4.8,10.5,14,14,0,0,1-10.2,4.1,14.45,14.45,0,0,1-10.2-25.2m16,6.8c0-6.8-.8-10-5.7-10s-5.7,3.2-5.7,10v7.3c0,6.8.8,10,5.7,10s5.7-3.2,5.7-10v-7.3Z" transform="translate(-196 -362)"/><path class="cls-1" d="M232.8,382.6a10.84,10.84,0,0,0-9.9,6.1c-0.7-3.7-4-6.1-8.7-6.1-4.3,0-7.7,2.1-10,6.1v-6.1H196v28.5h8.6V393.2c0-5.3,3.1-8.6,6.8-8.6,2.6,0,3.2,1.6,3.2,4.8V411h8.5V393.2c0-5.3,3.1-8.6,6.8-8.6,2.6,0,3.2,1.6,3.2,4.8V411h8.6V390.8c0.1-5.1-3.4-8.2-8.9-8.2" transform="translate(-196 -362)"/><path class="cls-1" d="M296.9,382.6c-3,0-5.8,2.1-7.4,5.7v-5.7H281v28.5h8.6V393c0-4.5,2.1-7.8,5.1-8.5a6.18,6.18,0,0,0-1.1,3.3,4.4,4.4,0,1,0,8.8-.1c-0.1-3.2-2-5.1-5.5-5.1" transform="translate(-196 -362)"/><path class="cls-1" d="M370.3,382.6c-3.8,0-6.7,1.9-8.6,5.4v-5.4h-8.2v46.5h8.6V406.9a8.46,8.46,0,0,0,7.7,4.9c7.9,0,13.9-6.1,13.9-14.3s-6.1-14.9-13.4-14.9m-1.4,27.9c-3.4,0-6.8-3.5-6.8-7.9v-9.3c0-6.2,2.6-9.4,6.7-9.4,4.5,0,5.6,4,5.6,12.7,0,9.2-.8,13.9-5.5,13.9" transform="translate(-196 -362)"/><path class="cls-1" d="M324.8,382.6a11.28,11.28,0,0,0-10.2,6.1V362h-8.2v49.1H315V393.2c0-5.3,3.2-8.6,6.9-8.6,2.7,0,3.3,1.6,3.3,4.8v21.7h8.6V390.8c0-5.1-3.3-8.2-9-8.2" transform="translate(-196 -362)"/><polygon class="cls-1" points="143.4 20.6 143.4 21.3 143.4 48.1 143.4 49 152 49 152 48.1 152 41.1 152 20.6 143.4 20.6"/><path class="cls-1" d="M348,370.3a4.4,4.4,0,1,1-4.4-4.4,4.37,4.37,0,0,1,4.4,4.4" transform="translate(-196 -362)"/></svg>